{
    "asset" : {
        "generator" : "Khronos glTF Blender I/O v1.7.33",
        "version" : "2.0"
    },
    "scene" : 0,
    "scenes" : [
        {
            "name" : "Scene",
            "nodes" : [
                0
            ]
        }
    ],
    "nodes" : [
        {
            "mesh" : 0,
            "name" : "Car",
            "rotation" : [
                0,
                -0.7071068286895752,
                0,
                0.7071068286895752
            ],
            "scale" : [
                2.2780988216400146,
                -0.33001264929771423,
                1
            ],
            "translation" : [
                0,
                0.5718772411346436,
                0
            ]
        }
    ],
    "materials" : [
        {
            "doubleSided" : true,
            "name" : "Material",
            "pbrMetallicRoughness" : {
                "baseColorFactor" : [
                    0.800000011920929,
                    0,
                    0,
                    1
                ],
                "metallicFactor" : 0,
                "roughnessFactor" : 0.5
            }
        },
        {
            "doubleSided" : true,
            "name" : "\u041e\u041a\u041d\u041e",
            "pbrMetallicRoughness" : {
                "baseColorFactor" : [
                    0.11650047451257706,
                    0.5384045839309692,
                    0.800000011920929,
                    1
                ],
                "metallicFactor" : 0,
                "roughnessFactor" : 0.5
            }
        },
        {
            "doubleSided" : true,
            "name" : "Material.007",
            "pbrMetallicRoughness" : {
                "baseColorFactor" : [
                    0.800000011920929,
                    0.6183311343193054,
                    0,
                    1
                ],
                "metallicFactor" : 0,
                "roughnessFactor" : 0.5
            }
        },
        {
            "doubleSided" : true,
            "name" : "Material.008",
            "pbrMetallicRoughness" : {
                "baseColorFactor" : [
                    0.800000011920929,
                    0.800000011920929,
                    0.800000011920929,
                    1
                ],
                "metallicFactor" : 0,
                "roughnessFactor" : 0.5
            }
        },
        {
            "doubleSided" : true,
            "name" : "Material.009",
            "pbrMetallicRoughness" : {
                "baseColorFactor" : [
                    0,
                    0,
                    0,
                    1
                ],
                "metallicFactor" : 0,
                "roughnessFactor" : 0.5
            }
        },
        {
            "doubleSided" : true,
            "name" : "Material.001",
            "pbrMetallicRoughness" : {
                "baseColorFactor" : [
                    0.0188484825193882,
                    0.0188484825193882,
                    0.0188484825193882,
                    1
                ],
                "metallicFactor" : 0,
                "roughnessFactor" : 0.5
            }
        },
        {
            "doubleSided" : true,
            "name" : "\u0414\u0418\u0421\u041a",
            "pbrMetallicRoughness" : {
                "baseColorFactor" : [
                    0.800000011920929,
                    0.800000011920929,
                    0.800000011920929,
                    1
                ],
                "metallicFactor" : 0,
                "roughnessFactor" : 0.5
            }
        },
        {
            "doubleSided" : true,
            "name" : "Material.003",
            "pbrMetallicRoughness" : {
                "baseColorFactor" : [
                    0.0578022301197052,
                    0.0578022301197052,
                    0.0578022301197052,
                    1
                ],
                "metallicFactor" : 0,
                "roughnessFactor" : 0.5
            }
        },
        {
            "doubleSided" : true,
            "name" : "Material.004",
            "pbrMetallicRoughness" : {
                "baseColorFactor" : [
                    0.800000011920929,
                    0.800000011920929,
                    0.800000011920929,
                    1
                ],
                "metallicFactor" : 0,
                "roughnessFactor" : 0.5
            }
        },
        {
            "doubleSided" : true,
            "name" : "Material.005",
            "pbrMetallicRoughness" : {
                "baseColorFactor" : [
                    0.06071927025914192,
                    0.06071927025914192,
                    0.06071927025914192,
                    1
                ],
                "metallicFactor" : 0,
                "roughnessFactor" : 0.5
            }
        },
        {
            "doubleSided" : true,
            "name" : "Material.006",
            "pbrMetallicRoughness" : {
                "baseColorFactor" : [
                    0.800000011920929,
                    0.800000011920929,
                    0.800000011920929,
                    1
                ],
                "metallicFactor" : 0,
                "roughnessFactor" : 0.5
            }
        },
        {
            "doubleSided" : true,
            "name" : "Material.010",
            "pbrMetallicRoughness" : {
                "baseColorFactor" : [
                    0.0188484825193882,
                    0.0188484825193882,
                    0.0188484825193882,
                    1
                ],
                "metallicFactor" : 0,
                "roughnessFactor" : 0.5
            }
        },
        {
            "doubleSided" : true,
            "name" : "\u0414\u0418\u0421\u041a.001",
            "pbrMetallicRoughness" : {
                "baseColorFactor" : [
                    0.800000011920929,
                    0.800000011920929,
                    0.800000011920929,
                    1
                ],
                "metallicFactor" : 0,
                "roughnessFactor" : 0.5
            }
        }
    ],
    "meshes" : [
        {
            "name" : "Cube",
            "primitives" : [
                {
                    "attributes" : {
                        "POSITION" : 0,
                        "NORMAL" : 1
                    },
                    "indices" : 2,
                    "material" : 0
                },
                {
                    "attributes" : {
                        "POSITION" : 3,
                        "NORMAL" : 4
                    },
                    "indices" : 5,
                    "material" : 1
                },
                {
                    "attributes" : {
                        "POSITION" : 6,
                        "NORMAL" : 7
                    },
                    "indices" : 8,
                    "material" : 2
                },
                {
                    "attributes" : {
                        "POSITION" : 9,
                        "NORMAL" : 10
                    },
                    "indices" : 11,
                    "material" : 3
                },
                {
                    "attributes" : {
                        "POSITION" : 12,
                        "NORMAL" : 13
                    },
                    "indices" : 14,
                    "material" : 4
                },
                {
                    "attributes" : {
                        "POSITION" : 15,
                        "NORMAL" : 16
                    },
                    "indices" : 17,
                    "material" : 5
                },
                {
                    "attributes" : {
                        "POSITION" : 18,
                        "NORMAL" : 19
                    },
                    "indices" : 20,
                    "material" : 6
                },
                {
                    "attributes" : {
                        "POSITION" : 21,
                        "NORMAL" : 22
                    },
                    "indices" : 23,
                    "material" : 7
                },
                {
                    "attributes" : {
                        "POSITION" : 24,
                        "NORMAL" : 25
                    },
                    "indices" : 26,
                    "material" : 8
                },
                {
                    "attributes" : {
                        "POSITION" : 27,
                        "NORMAL" : 28
                    },
                    "indices" : 29,
                    "material" : 9
                },
                {
                    "attributes" : {
                        "POSITION" : 30,
                        "NORMAL" : 31
                    },
                    "indices" : 26,
                    "material" : 10
                },
                {
                    "attributes" : {
                        "POSITION" : 32,
                        "NORMAL" : 33
                    },
                    "indices" : 34,
                    "material" : 11
                },
                {
                    "attributes" : {
                        "POSITION" : 35,
                        "NORMAL" : 36
                    },
                    "indices" : 20,
                    "material" : 12
                }
            ]
        }
    ],
    "accessors" : [
        {
            "bufferView" : 0,
            "componentType" : 5126,
            "count" : 3876,
            "max" : [
                1.0000004768371582,
                1,
                1.0000005960464478
            ],
            "min" : [
                -1.0000003576278687,
                -3.940105676651001,
                -1.000000238418579
            ],
            "type" : "VEC3"
        },
        {
            "bufferView" : 1,
            "componentType" : 5126,
            "count" : 3876,
            "type" : "VEC3"
        },
        {
            "bufferView" : 2,
            "componentType" : 5123,
            "count" : 6576,
            "type" : "SCALAR"
        },
        {
            "bufferView" : 3,
            "componentType" : 5126,
            "count" : 88,
            "max" : [
                0.47673460841178894,
                -1.1943633556365967,
                0.8251322507858276
            ],
            "min" : [
                -0.4712817072868347,
                -3.6702165603637695,
                -0.7901260852813721
            ],
            "type" : "VEC3"
        },
        {
            "bufferView" : 4,
            "componentType" : 5126,
            "count" : 88,
            "type" : "VEC3"
        },
        {
            "bufferView" : 5,
            "componentType" : 5123,
            "count" : 132,
            "type" : "SCALAR"
        },
        {
            "bufferView" : 6,
            "componentType" : 5126,
            "count" : 16,
            "max" : [
                1.000000238418579,
                1.8061321327422775e-07,
                0.9999997615814209
            ],
            "min" : [
                -0.9790297746658325,
                -0.5,
                -1.000000238418579
            ],
            "type" : "VEC3"
        },
        {
            "bufferView" : 7,
            "componentType" : 5126,
            "count" : 16,
            "type" : "VEC3"
        },
        {
            "bufferView" : 8,
            "componentType" : 5123,
            "count" : 24,
            "type" : "SCALAR"
        },
        {
            "bufferView" : 9,
            "componentType" : 5126,
            "count" : 24,
            "max" : [
                0.9553219079971313,
                1,
                0.8659234046936035
            ],
            "min" : [
                -0.9790297746658325,
                -0.4999998211860657,
                -0.886528730392456
            ],
            "type" : "VEC3"
        },
        {
            "bufferView" : 10,
            "componentType" : 5126,
            "count" : 24,
            "type" : "VEC3"
        },
        {
            "bufferView" : 11,
            "componentType" : 5123,
            "count" : 36,
            "type" : "SCALAR"
        },
        {
            "bufferView" : 12,
            "componentType" : 5126,
            "count" : 8,
            "max" : [
                -0.9999998211860657,
                0,
                0.4534881114959717
            ],
            "min" : [
                -1.0000001192092896,
                -0.5,
                -0.4469503164291382
            ],
            "type" : "VEC3"
        },
        {
            "bufferView" : 13,
            "componentType" : 5126,
            "count" : 8,
            "type" : "VEC3"
        },
        {
            "bufferView" : 14,
            "componentType" : 5123,
            "count" : 12,
            "type" : "SCALAR"
        },
        {
            "bufferView" : 15,
            "componentType" : 5126,
            "count" : 672,
            "max" : [
                -0.4838593006134033,
                1.804352045059204,
                -0.8552571535110474
            ],
            "min" : [
                -0.7105089426040649,
                0.23977410793304443,
                -1.0272008180618286
            ],
            "type" : "VEC3"
        },
        {
            "bufferView" : 16,
            "componentType" : 5126,
            "count" : 672,
            "type" : "VEC3"
        },
        {
            "bufferView" : 17,
            "componentType" : 5123,
            "count" : 1050,
            "type" : "SCALAR"
        },
        {
            "bufferView" : 18,
            "componentType" : 5126,
            "count" : 32,
            "max" : [
                -0.5255576968193054,
                1.5165046453475952,
                -0.9954882264137268
            ],
            "min" : [
                -0.6688105463981628,
                0.5276210308074951,
                -0.9954884052276611
            ],
            "type" : "VEC3"
        },
        {
            "bufferView" : 19,
            "componentType" : 5126,
            "count" : 32,
            "type" : "VEC3"
        },
        {
            "bufferView" : 20,
            "componentType" : 5123,
            "count" : 90,
            "type" : "SCALAR"
        },
        {
            "bufferView" : 21,
            "componentType" : 5126,
            "count" : 672,
            "max" : [
                0.7385704517364502,
                1.804352045059204,
                1.0495457649230957
            ],
            "min" : [
                0.5119208097457886,
                0.23977410793304443,
                0.8847328424453735
            ],
            "type" : "VEC3"
        },
        {
            "bufferView" : 22,
            "componentType" : 5126,
            "count" : 672,
            "type" : "VEC3"
        },
        {
            "bufferView" : 23,
            "componentType" : 5123,
            "count" : 1050,
            "type" : "SCALAR"
        },
        {
            "bufferView" : 24,
            "componentType" : 5126,
            "count" : 32,
            "max" : [
                0.6968720555305481,
                1.5165050029754639,
                0.9946334362030029
            ],
            "min" : [
                0.5536192059516907,
                0.5276213884353638,
                0.9946332573890686
            ],
            "type" : "VEC3"
        },
        {
            "bufferView" : 25,
            "componentType" : 5126,
            "count" : 32,
            "type" : "VEC3"
        },
        {
            "bufferView" : 26,
            "componentType" : 5123,
            "count" : 90,
            "type" : "SCALAR"
        },
        {
            "bufferView" : 27,
            "componentType" : 5126,
            "count" : 672,
            "max" : [
                -0.48219990730285645,
                1.804352045059204,
                1.0001580715179443
            ],
            "min" : [
                -0.7088495492935181,
                0.23977410793304443,
                0.8353452086448669
            ],
            "type" : "VEC3"
        },
        {
            "bufferView" : 28,
            "componentType" : 5126,
            "count" : 672,
            "type" : "VEC3"
        },
        {
            "bufferView" : 29,
            "componentType" : 5123,
            "count" : 1050,
            "type" : "SCALAR"
        },
        {
            "bufferView" : 30,
            "componentType" : 5126,
            "count" : 32,
            "max" : [
                -0.5238983035087585,
                1.5165050029754639,
                0.9468879699707031
            ],
            "min" : [
                -0.667151153087616,
                0.5276213884353638,
                0.9468877911567688
            ],
            "type" : "VEC3"
        },
        {
            "bufferView" : 31,
            "componentType" : 5126,
            "count" : 32,
            "type" : "VEC3"
        },
        {
            "bufferView" : 32,
            "componentType" : 5126,
            "count" : 672,
            "max" : [
                0.7429134249687195,
                1.7662028074264526,
                -0.8552571535110474
            ],
            "min" : [
                0.5162637829780579,
                0.20162492990493774,
                -1.0272008180618286
            ],
            "type" : "VEC3"
        },
        {
            "bufferView" : 33,
            "componentType" : 5126,
            "count" : 672,
            "type" : "VEC3"
        },
        {
            "bufferView" : 34,
            "componentType" : 5123,
            "count" : 1050,
            "type" : "SCALAR"
        },
        {
            "bufferView" : 35,
            "componentType" : 5126,
            "count" : 32,
            "max" : [
                0.7012150287628174,
                1.4783555269241333,
                -0.9954882264137268
            ],
            "min" : [
                0.55796217918396,
                0.4894718825817108,
                -0.9954884052276611
            ],
            "type" : "VEC3"
        },
        {
            "bufferView" : 36,
            "componentType" : 5126,
            "count" : 32,
            "type" : "VEC3"
        }
    ],
    "bufferViews" : [
        {
            "buffer" : 0,
            "byteLength" : 46512,
            "byteOffset" : 0
        },
        {
            "buffer" : 0,
            "byteLength" : 46512,
            "byteOffset" : 46512
        },
        {
            "buffer" : 0,
            "byteLength" : 13152,
            "byteOffset" : 93024
        },
        {
            "buffer" : 0,
            "byteLength" : 1056,
            "byteOffset" : 106176
        },
        {
            "buffer" : 0,
            "byteLength" : 1056,
            "byteOffset" : 107232
        },
        {
            "buffer" : 0,
            "byteLength" : 264,
            "byteOffset" : 108288
        },
        {
            "buffer" : 0,
            "byteLength" : 192,
            "byteOffset" : 108552
        },
        {
            "buffer" : 0,
            "byteLength" : 192,
            "byteOffset" : 108744
        },
        {
            "buffer" : 0,
            "byteLength" : 48,
            "byteOffset" : 108936
        },
        {
            "buffer" : 0,
            "byteLength" : 288,
            "byteOffset" : 108984
        },
        {
            "buffer" : 0,
            "byteLength" : 288,
            "byteOffset" : 109272
        },
        {
            "buffer" : 0,
            "byteLength" : 72,
            "byteOffset" : 109560
        },
        {
            "buffer" : 0,
            "byteLength" : 96,
            "byteOffset" : 109632
        },
        {
            "buffer" : 0,
            "byteLength" : 96,
            "byteOffset" : 109728
        },
        {
            "buffer" : 0,
            "byteLength" : 24,
            "byteOffset" : 109824
        },
        {
            "buffer" : 0,
            "byteLength" : 8064,
            "byteOffset" : 109848
        },
        {
            "buffer" : 0,
            "byteLength" : 8064,
            "byteOffset" : 117912
        },
        {
            "buffer" : 0,
            "byteLength" : 2100,
            "byteOffset" : 125976
        },
        {
            "buffer" : 0,
            "byteLength" : 384,
            "byteOffset" : 128076
        },
        {
            "buffer" : 0,
            "byteLength" : 384,
            "byteOffset" : 128460
        },
        {
            "buffer" : 0,
            "byteLength" : 180,
            "byteOffset" : 128844
        },
        {
            "buffer" : 0,
            "byteLength" : 8064,
            "byteOffset" : 129024
        },
        {
            "buffer" : 0,
            "byteLength" : 8064,
            "byteOffset" : 137088
        },
        {
            "buffer" : 0,
            "byteLength" : 2100,
            "byteOffset" : 145152
        },
        {
            "buffer" : 0,
            "byteLength" : 384,
            "byteOffset" : 147252
        },
        {
            "buffer" : 0,
            "byteLength" : 384,
            "byteOffset" : 147636
        },
        {
            "buffer" : 0,
            "byteLength" : 180,
            "byteOffset" : 148020
        },
        {
            "buffer" : 0,
            "byteLength" : 8064,
            "byteOffset" : 148200
        },
        {
            "buffer" : 0,
            "byteLength" : 8064,
            "byteOffset" : 156264
        },
        {
            "buffer" : 0,
            "byteLength" : 2100,
            "byteOffset" : 164328
        },
        {
            "buffer" : 0,
            "byteLength" : 384,
            "byteOffset" : 166428
        },
        {
            "buffer" : 0,
            "byteLength" : 384,
            "byteOffset" : 166812
        },
        {
            "buffer" : 0,
            "byteLength" : 8064,
            "byteOffset" : 167196
        },
        {
            "buffer" : 0,
            "byteLength" : 8064,
            "byteOffset" : 175260
        },
        {
            "buffer" : 0,
            "byteLength" : 2100,
            "byteOffset" : 183324
        },
        {
            "buffer" : 0,
            "byteLength" : 384,
            "byteOffset" : 185424
        },
        {
            "buffer" : 0,
            "byteLength" : 384,
            "byteOffset" : 185808
        }
    ],
    "buffers" : [
        {
            "byteLength" : 186192,
            "uri" : "buffer.bin"
        }
    ]
}
